<svg width="114" height="30" viewBox="0 0 114 30" fill="none" xmlns="http://www.w3.org/2000/svg">
<path d="M8.9469 12.0312C7.3848 10.4691 7.3848 7.93646 8.9469 6.37436L10.5844 4.73685L23.6659 17.8183C25.228 19.3804 25.228 21.9131 23.6659 23.4752L22.0284 25.1127L8.9469 12.0312Z" fill="#834CFF"/>
<circle cx="8.4869" cy="20.5264" r="4.73684" fill="#834CFF"/>
<path d="M42.579 24.368C40.21 24.368 38.301 23.609 36.852 22.045C35.38 20.504 34.644 18.434 34.644 15.812C34.644 13.19 35.357 11.12 36.829 9.556C38.255 8.038 40.187 7.256 42.579 7.256C44.488 7.256 46.121 7.785 47.478 8.797C48.812 9.832 49.663 11.327 50.008 13.259H46.857C46.581 12.201 46.052 11.373 45.316 10.821C44.58 10.269 43.66 9.97 42.579 9.97C41.107 9.97 39.957 10.499 39.129 11.534C38.301 12.569 37.887 13.995 37.887 15.812C37.887 17.652 38.301 19.101 39.129 20.113C39.957 21.148 41.107 21.654 42.579 21.654C43.706 21.654 44.672 21.332 45.5 20.642C46.305 19.975 46.788 19.032 46.972 17.836H50.077C49.87 19.929 49.065 21.539 47.639 22.666C46.213 23.816 44.534 24.368 42.579 24.368ZM61.729 22.574C60.625 23.724 59.153 24.276 57.359 24.276C55.542 24.276 54.093 23.724 52.989 22.574C51.862 21.47 51.31 19.952 51.31 18.066C51.31 16.18 51.862 14.685 52.989 13.558C54.093 12.431 55.542 11.856 57.359 11.856C59.153 11.856 60.625 12.431 61.729 13.535C62.833 14.662 63.385 16.18 63.385 18.066C63.385 19.952 62.833 21.447 61.729 22.574ZM57.359 21.884C58.325 21.884 59.061 21.562 59.613 20.895C60.165 20.228 60.441 19.285 60.441 18.066C60.441 16.87 60.165 15.927 59.613 15.26C59.061 14.593 58.325 14.248 57.359 14.248C56.393 14.248 55.634 14.593 55.082 15.237C54.53 15.904 54.277 16.847 54.277 18.066C54.277 19.308 54.53 20.251 55.082 20.895C55.634 21.562 56.393 21.884 57.359 21.884ZM69.7375 24.322C66.2645 24.322 64.4475 22.965 64.3095 20.228H67.1385C67.2075 20.964 67.4375 21.493 67.8515 21.792C68.2655 22.114 68.9095 22.252 69.7835 22.252C71.3475 22.252 72.1295 21.792 72.1295 20.826C72.1295 20.412 71.9455 20.067 71.6235 19.837C71.2785 19.607 70.6805 19.423 69.8065 19.262L68.4495 19.032C65.8505 18.618 64.5625 17.422 64.5625 15.444C64.5625 14.34 64.9765 13.466 65.8505 12.822C66.7015 12.178 67.9205 11.856 69.4845 11.856C72.8655 11.856 74.6135 13.213 74.7285 15.881H71.9915C71.9455 15.191 71.7385 14.685 71.3245 14.386C70.9105 14.087 70.2895 13.926 69.4845 13.926C68.1045 13.926 67.4145 14.386 67.4145 15.306C67.4145 15.72 67.5525 16.019 67.8745 16.249C68.1735 16.479 68.6795 16.64 69.3925 16.755L70.8875 16.985C72.3135 17.261 73.3715 17.675 74.0155 18.227C74.6595 18.802 75.0045 19.584 75.0045 20.596C75.0045 21.792 74.5445 22.712 73.6245 23.356C72.7045 24 71.3935 24.322 69.7375 24.322ZM90.093 11.856C91.381 11.856 92.393 12.247 93.129 13.006C93.865 13.788 94.233 14.823 94.233 16.157V24H91.335V16.617C91.335 15.122 90.645 14.363 89.288 14.363C88.552 14.363 87.954 14.639 87.494 15.168C87.034 15.697 86.827 16.456 86.827 17.468V24H83.952V16.617C83.952 15.122 83.262 14.363 81.882 14.363C81.146 14.363 80.571 14.639 80.111 15.168C79.651 15.697 79.444 16.456 79.444 17.468V24H76.546V12.132H79.352V13.834C80.157 12.523 81.284 11.856 82.733 11.856C84.527 11.856 85.769 12.592 86.413 14.064C87.287 12.592 88.529 11.856 90.093 11.856ZM99.4562 10.591H96.6042V7.877H99.4562V10.591ZM99.4792 24H96.5812V12.132H99.4792V24ZM107.151 24.276C105.403 24.276 103.977 23.724 102.896 22.574C101.815 21.47 101.286 19.952 101.286 18.066C101.286 16.18 101.815 14.662 102.896 13.535C103.954 12.431 105.357 11.856 107.151 11.856C108.692 11.856 109.957 12.27 110.946 13.098C111.912 13.926 112.487 15.03 112.671 16.41H109.773C109.635 15.72 109.336 15.191 108.876 14.823C108.416 14.455 107.841 14.271 107.151 14.271C106.231 14.271 105.518 14.616 105.012 15.26C104.506 15.904 104.253 16.847 104.253 18.066C104.253 19.308 104.506 20.251 105.035 20.895C105.541 21.539 106.254 21.861 107.151 21.861C107.841 21.861 108.439 21.677 108.922 21.286C109.405 20.895 109.704 20.32 109.819 19.584H112.717C112.556 21.01 111.981 22.16 110.969 23.011C109.957 23.862 108.669 24.276 107.151 24.276Z" fill="#834CFF"/>
</svg>
