<svg width="33" height="20" viewBox="0 0 33 20" fill="none" xmlns="http://www.w3.org/2000/svg">
<g clip-path="url(#clip0_3_209)">
<path d="M21.1802 2.13889H12.4197V17.8611H21.1802V2.13889Z" fill="#FF5F00"/>
<path d="M12.9764 10.0005C12.9764 6.94491 14.3948 4.02824 16.7866 2.13935C12.448 -1.27732 6.16269 -0.527315 2.74192 3.8338C-0.678854 8.16713 0.0720475 14.4449 4.4384 17.8616C8.08166 20.7227 13.1711 20.7227 16.8144 17.8616C14.3948 15.9727 12.9764 13.056 12.9764 10.0005Z" fill="#EB001B"/>
<path d="M33.0001 10C33.0001 15.5278 28.5225 20 22.988 20C20.7353 20 18.5661 19.25 16.814 17.8611C21.1525 14.4444 21.9034 8.16667 18.4826 3.80556C17.982 3.19445 17.4258 2.61111 16.814 2.13889C21.1525 -1.27778 27.4656 -0.527777 30.8586 3.83333C32.2492 5.58333 33.0001 7.75 33.0001 10Z" fill="#F79E1B"/>
<path d="M32.0544 16.1944V15.8611H32.1935V15.8056H31.8597V15.8611H31.9988V16.1944H32.0544ZM32.6941 16.1944V15.8056H32.5828L32.4716 16.0833L32.3603 15.8056H32.2491V16.1944H32.3325V15.8889L32.4438 16.1389H32.5272L32.6385 15.8889V16.1944H32.6941Z" fill="#F79E1B"/>
</g>
<defs>
<clipPath id="clip0_3_209">
<rect width="32.4" height="20" fill="white" transform="translate(0.599976)"/>
</clipPath>
</defs>
</svg>
