<svg width="39" height="31" viewBox="0 0 39 31" fill="none" xmlns="http://www.w3.org/2000/svg">
<path d="M34.9169 30.0666H4.08204C2.10779 30.0666 0.487305 28.4461 0.487305 26.4719V3.63672C0.487305 1.66246 2.10779 0.0419769 4.08204 0.0419769H34.9169C36.8912 0.0419769 38.5116 1.66246 38.5116 3.63672V26.4719C38.5231 28.4461 36.9026 30.0666 34.9169 30.0666Z" fill="#F6C859"/>
<path d="M15.1288 26.061C14.969 26.061 14.8092 25.9698 14.7408 25.8214C14.6266 25.6046 14.7179 25.3421 14.9348 25.228C15.5738 24.897 16.4411 24.2922 16.9433 23.2309C17.5823 21.8843 17.4111 20.4236 17.1487 20.2981C17.0802 20.2638 16.8177 20.4008 16.658 20.4806C16.2357 20.6975 15.6651 20.9828 15.0032 20.7545C14.3528 20.5263 14.0332 19.9443 13.8735 19.6704C12.8806 17.8445 12.5725 13.0858 13.6224 10.7349C13.9762 9.94749 14.4441 9.49101 15.0375 9.34266C15.6423 9.20572 16.133 9.45678 16.521 9.66219C16.8406 9.83337 17.0117 9.90184 17.1144 9.84478C17.5253 9.59372 17.5139 8.08736 16.9433 6.88911C16.4411 5.82781 15.5738 5.21157 14.9348 4.89203C14.7179 4.77791 14.6381 4.51544 14.7408 4.29862C14.8549 4.08179 15.1174 4.00191 15.3342 4.10461C16.0874 4.49262 17.1258 5.22298 17.7307 6.51252C18.3355 7.77924 18.6208 9.9589 17.5595 10.598C17.0231 10.9175 16.521 10.655 16.1102 10.4496C15.8021 10.2784 15.5168 10.1415 15.2315 10.1986C14.8435 10.2898 14.581 10.7349 14.4212 11.0887C13.4969 13.1542 13.7593 17.6391 14.6381 19.2482C14.7864 19.522 14.969 19.8188 15.2771 19.9215C15.5738 20.0242 15.8477 19.8986 16.2471 19.6932C16.6351 19.4992 17.0688 19.271 17.5253 19.4992C18.5067 19.9785 18.4496 22.1011 17.7307 23.6075C17.1258 24.8856 16.0874 25.6274 15.3342 26.0154C15.2657 26.0496 15.1972 26.061 15.1288 26.061Z" fill="#7D662D"/>
<path d="M13.805 11.5337H5.87377C5.63412 11.5337 5.42871 11.3397 5.42871 11.0887C5.42871 10.849 5.62271 10.6436 5.87377 10.6436H13.805C14.0447 10.6436 14.2501 10.8376 14.2501 11.0887C14.2501 11.3397 14.0447 11.5337 13.805 11.5337Z" fill="#7D662D"/>
<path d="M13.805 19.465H5.87377C5.63412 19.465 5.42871 19.271 5.42871 19.0199C5.42871 18.7803 5.62271 18.5749 5.87377 18.5749H13.805C14.0447 18.5749 14.2501 18.7689 14.2501 19.0199C14.2501 19.2596 14.0447 19.465 13.805 19.465Z" fill="#7D662D"/>
<path d="M24.3724 26.061C24.304 26.061 24.2355 26.0496 24.167 26.0154C23.4138 25.6274 22.3754 24.897 21.7705 23.6075C21.0516 22.1011 20.9945 19.9785 21.9759 19.4992C22.4324 19.2824 22.8661 19.4992 23.2541 19.6932C23.6535 19.8986 23.9274 20.0242 24.2241 19.9215C24.555 19.8073 24.749 19.4536 24.8631 19.2482C25.7419 17.6391 26.0043 13.1542 25.08 11.0887C24.9202 10.7349 24.6463 10.2898 24.2697 10.1985C24.0301 10.1415 23.8817 9.90184 23.9388 9.6736C23.9958 9.43395 24.2355 9.2856 24.4637 9.34266C25.0571 9.4796 25.5364 9.94749 25.8788 10.7349C26.9287 13.0972 26.632 17.8445 25.6277 19.6704C25.4794 19.9443 25.1598 20.5263 24.5094 20.7545C23.8475 20.9828 23.2655 20.6975 22.8546 20.4806C22.6949 20.4008 22.421 20.2638 22.3639 20.2981C22.1015 20.4236 21.9303 21.8843 22.5694 23.2309C23.0715 24.2922 23.9388 24.9084 24.5778 25.228C24.7947 25.3421 24.8746 25.6046 24.7718 25.8214C24.692 25.9812 24.5322 26.061 24.3724 26.061Z" fill="#7D662D"/>
<path d="M22.6149 9.77631C22.4323 9.77631 22.2611 9.66219 22.1926 9.4796C21.2455 6.64946 23.4594 4.46979 24.1669 4.10461C24.3837 3.99049 24.6462 4.08178 24.7603 4.29861C24.8744 4.51544 24.7831 4.77791 24.5663 4.89203C24.2468 5.05179 22.2155 6.79781 23.0257 9.20571C23.1056 9.43395 22.9801 9.68501 22.7518 9.76489C22.7062 9.76489 22.6605 9.77631 22.6149 9.77631Z" fill="#7D662D"/>
<path d="M33.6275 11.5337H25.6963C25.4566 11.5337 25.2512 11.3397 25.2512 11.0887C25.2512 10.849 25.4452 10.6436 25.6963 10.6436H33.6275C33.8672 10.6436 34.0726 10.8376 34.0726 11.0887C34.0612 11.3397 33.8672 11.5337 33.6275 11.5337Z" fill="#7D662D"/>
<path d="M33.6275 19.465H25.6963C25.4566 19.465 25.2512 19.271 25.2512 19.0199C25.2512 18.7803 25.4452 18.5749 25.6963 18.5749H33.6275C33.8672 18.5749 34.0726 18.7689 34.0726 19.0199C34.0612 19.2596 33.8672 19.465 33.6275 19.465Z" fill="#7D662D"/>
</svg>
