<svg width="386" height="245" viewBox="0 0 386 245" fill="none" xmlns="http://www.w3.org/2000/svg">
<path d="M6.27868 96.5009C5.78299 105.903 5.28731 115.567 0.0708008 124.401V121.476C3.96548 113.66 4.40215 105.193 4.85063 96.4298C5.54695 83.0957 6.26688 69.2997 20.3939 57.9669C23.6631 55.3379 26.9087 53.455 30.1188 52.1406L30.107 39.0078C30.107 36.5091 32.137 34.4841 34.6154 34.4841L63.6248 34.4604C66.1032 34.4604 68.1332 36.4736 68.1332 38.9722L68.145 52.3774C79.0383 53.9287 89.6129 53.8577 100.872 44.834C114.503 33.9157 115.164 21.0315 115.872 7.42503C116.002 5.0211 116.132 2.59348 116.321 0.165863H117.761C117.548 2.5698 117.419 5.03294 117.289 7.49609C116.616 20.8421 115.896 34.638 101.769 45.959C90.203 55.2313 79.0265 55.3379 68.1568 53.8222V60.0511C68.1568 62.5379 66.1268 64.5747 63.6602 64.5747L34.6508 64.5984C32.1606 64.5984 30.1306 62.5616 30.1306 60.0866V53.6445C27.2155 54.9235 24.2768 56.6879 21.2909 59.0919C7.64772 70.0102 6.9868 82.8707 6.27868 96.5009Z" fill="url(#paint0_linear_3_1077)"/>
<path d="M4.29609 194.695C2.89165 194.446 1.51081 194.21 0.118164 193.996V192.552C1.59342 192.777 3.06868 193.037 4.53213 193.298C17.9275 195.607 30.5793 197.798 44.1988 186.867C57.8302 175.949 58.4911 163.077 59.1992 149.458C59.8955 136.124 60.6037 122.328 74.7307 110.995C88.8578 99.6627 102.418 102.007 115.542 104.281C128.938 106.59 141.589 108.793 155.209 97.8745C168.828 86.9561 169.501 74.072 170.209 60.4655C170.906 47.1313 171.602 33.3354 185.741 22.0025C199.868 10.6815 213.428 13.0144 226.54 15.2881C239.936 17.5973 252.588 19.7999 266.207 8.88155C269.724 6.06315 272.368 3.12632 274.374 0.0710754H276.05C273.914 3.52895 271.022 6.85656 267.116 10.0065C252.989 21.3275 239.428 18.971 226.304 16.721C212.909 14.3881 200.257 12.2092 186.638 23.1275C173.006 34.0459 172.345 46.9182 171.637 60.5365C170.941 73.8707 170.233 87.6667 156.106 98.9995C141.979 110.32 128.43 107.988 115.306 105.714C101.911 103.381 89.2472 101.202 75.6159 112.12C61.9845 123.039 61.3236 135.911 60.6155 149.529C59.9191 162.864 59.2228 176.66 45.084 187.992C30.9687 199.313 17.4082 196.969 4.29609 194.695Z" fill="url(#paint1_linear_3_1077)"/>
<path d="M296.94 37.9064L296.999 37.5393H304.658C305.697 37.5866 306.535 37.9064 306.818 39.0195L308.494 47.0603C306.853 42.8445 302.9 39.3511 296.94 37.9064Z" fill="url(#paint2_linear_3_1077)"/>
<path d="M308.694 48.2445L309.214 50.1274L314.052 37.7169H319.281L311.503 55.8589H306.287L301.861 40.7011C305.036 42.7498 307.738 45.9826 308.694 48.2445Z" fill="url(#paint3_linear_3_1077)"/>
<path d="M328.274 43.3656C328.298 39.8366 331.744 37.3498 336.618 37.3498C338.53 37.3498 340.076 37.7524 341.044 38.1195L340.371 42.0511L339.923 41.8498C339.002 41.4827 337.834 41.1393 336.217 41.1511C334.293 41.1511 333.384 41.9682 333.384 42.7261C333.372 43.5669 334.446 44.1353 336.17 44.9761C339.014 46.2787 340.336 47.8419 340.3 49.9261C340.277 53.7037 336.901 56.1431 331.72 56.1431C329.501 56.1194 327.377 55.6694 326.22 55.1721L326.917 51.0984L327.542 51.3826C329.159 52.0576 330.221 52.3418 332.192 52.3418C333.609 52.3418 335.131 51.7853 335.155 50.5655C335.166 49.7603 334.505 49.1918 332.594 48.3037C330.717 47.4392 328.25 45.9708 328.274 43.3656Z" fill="url(#paint4_linear_3_1077)"/>
<path d="M339.993 55.8589L347.311 39.1735C347.83 38.0011 348.727 37.6695 349.907 37.6695H353.719L357.732 55.8471H353.141C353.141 55.8471 352.692 53.7629 352.539 53.1352H346.213C346.024 53.6089 345.175 55.8471 345.175 55.8471L339.993 55.8589Z" fill="url(#paint5_linear_3_1077)"/>
<path d="M382.091 11.3328C383.909 14.6131 384.924 18.4025 384.924 22.417L384.948 48.7182C384.546 52.105 384.369 55.5036 384.192 58.8668C383.484 72.497 382.823 85.3574 369.192 96.2758C355.561 107.194 342.909 105.003 329.525 102.682C316.413 100.409 302.853 98.0639 288.725 109.397C274.587 120.718 273.879 134.514 273.194 147.86C272.486 161.466 271.825 174.35 258.194 185.269C244.562 196.187 231.91 193.996 218.527 191.675C205.403 189.402 191.842 187.057 177.715 198.39C163.588 209.711 162.868 223.507 162.184 236.853C162.054 239.316 161.936 241.767 161.712 244.183L84.1724 244.242C84.975 243.697 85.7893 243.093 86.5919 242.442C100.731 231.121 101.439 217.325 102.123 203.979C102.831 190.349 103.492 177.489 117.124 166.57C130.755 155.652 143.419 157.831 156.814 160.164C169.938 162.437 183.487 164.782 197.614 153.449C211.741 142.128 212.461 128.332 213.145 114.986C213.853 101.356 214.514 88.4956 228.146 77.5772C241.777 66.6589 254.429 68.8378 267.812 71.1707C280.936 73.4325 294.497 75.7891 308.624 64.4562C313.356 60.6549 316.59 56.5813 318.809 52.33L318.207 55.8589H323.14L326.232 37.6814H323.211C323.754 33.7972 323.955 29.8775 324.143 25.9933C324.604 16.8749 325.076 8.09995 329.419 0.0236816H327.837C323.636 8.30127 323.176 17.2065 322.727 25.9222C322.515 29.9248 322.314 33.8564 321.783 37.6814H321.299L319.8 46.5155C317.77 52.4721 314.23 58.1207 307.739 63.3312C294.107 74.2496 281.455 72.0588 268.072 69.7378C254.96 67.4641 241.399 65.1194 227.272 76.4522C213.133 87.7732 212.425 101.569 211.741 114.915C211.033 128.522 210.372 141.406 196.74 152.324C183.109 163.243 170.457 161.052 157.074 158.731C143.95 156.457 130.389 154.112 116.262 165.445C102.135 176.778 101.38 190.586 100.695 203.92C99.9872 217.55 99.3263 230.411 85.6949 241.329C84.314 242.43 82.9568 243.413 81.576 244.242L22.8018 244.289C14.4459 244.301 7.11687 239.837 3.08057 233.17C7.03425 240.239 14.564 245.012 23.2031 245L362.429 244.751C375.164 244.739 385.479 234.366 385.467 221.6L385.325 23.1038C385.325 18.7933 384.157 14.767 382.091 11.3328ZM385.077 220.89C385.089 233.667 374.762 244.029 362.04 244.041L206.985 244.147C207.055 244.076 207.138 244.017 207.232 243.946C220.864 233.028 233.527 235.207 246.923 237.539C260.047 239.813 273.595 242.158 287.722 230.825C301.849 219.504 302.569 205.708 303.254 192.362C303.962 178.732 304.623 165.871 318.254 154.953C331.886 144.035 344.537 146.214 357.921 148.547C366.761 150.062 375.777 151.625 385.03 149.032L385.077 220.89ZM385.018 147.587C376.049 150.228 367.268 148.701 358.145 147.137C345.033 144.864 331.473 142.519 317.345 153.852C303.207 165.173 302.498 178.969 301.814 192.315C301.106 205.921 300.445 218.805 286.814 229.724C273.182 240.642 260.53 238.451 247.147 236.13C234.023 233.857 220.462 231.512 206.335 242.845C205.793 243.271 205.261 243.721 204.766 244.171L163.164 244.207C163.364 241.779 163.494 239.363 163.612 236.947C164.32 223.317 164.981 210.457 178.612 199.538C192.244 188.62 204.896 190.799 218.303 193.132C231.427 195.406 244.975 197.75 259.102 186.417C273.229 175.096 273.949 161.3 274.634 147.954C275.342 134.324 276.003 121.464 289.634 110.545C303.266 99.6271 315.917 101.806 329.301 104.139C342.425 106.401 355.985 108.757 370.112 97.4245C380.911 88.7679 383.862 78.6667 384.971 68.447L385.018 147.587Z" fill="url(#paint6_linear_3_1077)"/>
<path d="M116.321 0.177704C116.12 2.60532 115.991 5.0211 115.873 7.43687C115.164 21.0434 114.503 33.9275 100.872 44.8459C89.613 53.8577 79.0383 53.9406 68.145 52.3893L68.1332 38.9841C68.1332 36.4854 66.1033 34.4723 63.6248 34.4723L34.6154 34.4959C32.1252 34.4959 30.0952 36.5209 30.107 39.0196L30.1188 52.1524C26.9087 53.4787 23.6631 55.3498 20.3939 57.9787C6.2669 69.2997 5.54697 83.0957 4.85065 96.4298C4.40217 105.193 3.9655 113.66 0.0708224 121.476L1.0106e-05 23.3881C-0.0117919 10.6342 10.315 0.248756 23.0376 0.248756L116.321 0.177704Z" fill="url(#paint7_linear_3_1077)"/>
<path d="M274.398 0.0592346C272.38 3.11448 269.748 6.05131 266.231 8.86971C252.6 19.7881 239.948 17.5973 226.564 15.2763C213.452 13.0026 199.892 10.6579 185.765 21.9907C171.626 33.3117 170.918 47.1077 170.233 60.4537C169.525 74.0602 168.864 86.9443 155.233 97.8627C141.601 108.781 128.949 106.59 115.566 104.269C102.442 101.996 88.8815 99.6508 74.7545 110.984C60.6274 122.316 59.9075 136.101 59.223 149.447C58.5149 163.077 57.8539 175.937 44.2226 186.856C30.5912 197.774 17.9394 195.595 4.5559 193.286C3.08064 193.025 1.60539 192.777 0.141935 192.54L0.0947266 124.389C5.32303 115.555 5.81872 105.903 6.3026 96.489C7.01073 82.8588 7.67164 69.9983 21.303 59.08C24.2889 56.6879 27.2276 54.9116 30.1427 53.6326V60.0747C30.1427 62.5615 32.1727 64.5865 34.6629 64.5865L63.6724 64.5628C66.1508 64.5628 68.1689 62.526 68.1689 60.0392V53.8103C79.0268 55.326 90.2152 55.2195 101.781 45.9471C115.896 34.638 116.616 20.842 117.301 7.50788C117.431 5.04473 117.549 2.59343 117.773 0.177655L274.398 0.0592346Z" fill="url(#paint8_linear_3_1077)"/>
<path d="M276.074 0.0592383C273.937 3.51711 271.046 6.84473 267.139 9.99471C253.012 21.3157 239.452 18.9591 226.328 16.7091C212.933 14.3763 200.281 12.1973 186.661 23.1157C173.03 34.0341 172.369 46.9064 171.661 60.5247C170.964 73.8588 170.256 87.6548 156.129 98.9877C142.002 110.309 128.454 107.976 115.33 105.702C101.934 103.369 89.2707 101.19 75.6394 112.109C62.008 123.027 61.3471 135.899 60.639 149.518C59.9427 162.852 59.2463 176.648 45.1075 187.981C30.9804 199.302 17.4199 196.969 4.30781 194.695C2.90336 194.446 1.52252 194.21 0.129883 193.996L0.153487 221.884C0.153487 225.851 1.15666 229.594 2.93877 232.862C2.99778 232.98 3.03319 233.075 3.1158 233.158C7.1521 239.825 14.4694 244.278 22.837 244.278L81.6112 244.23C82.9802 243.401 84.3375 242.418 85.7301 241.317C99.3615 230.399 100.022 217.526 100.731 203.908C101.427 190.574 102.135 176.778 116.262 165.445C130.389 154.112 143.95 156.457 157.073 158.731C170.469 161.04 183.121 163.243 196.74 152.324C210.36 141.406 211.032 128.522 211.741 114.915C212.437 101.581 213.133 87.7851 227.272 76.4523C241.399 65.1313 254.96 67.4641 268.072 69.7378C281.467 72.047 294.119 74.2496 307.738 63.3313C314.241 58.1208 317.782 52.4721 319.8 46.5156L321.299 37.6814H321.783C322.326 33.8564 322.526 29.9249 322.727 25.9223C323.176 17.2065 323.648 8.3013 327.837 0.0237122L276.074 0.0592383ZM296.999 37.5393H304.658C305.697 37.5867 306.535 37.9064 306.818 39.0196L308.494 47.0603C306.841 42.8564 302.9 39.363 296.94 37.9182L296.999 37.5393ZM311.503 55.8471H306.287L301.861 40.6893C305.036 42.738 307.738 45.9827 308.694 48.2327L309.214 50.1155L314.053 37.7051H319.281L311.503 55.8471Z" fill="url(#paint9_linear_3_1077)"/>
<path d="M296.94 37.9064L296.999 37.5393H304.658C305.697 37.5866 306.535 37.9064 306.818 39.0195L308.494 47.0603C306.853 42.8445 302.9 39.3511 296.94 37.9064Z" fill="url(#paint10_linear_3_1077)"/>
<path d="M308.694 48.2445L309.214 50.1274L314.052 37.7169H319.281L311.503 55.8589H306.287L301.861 40.7011C305.036 42.7498 307.738 45.9826 308.694 48.2445Z" fill="url(#paint11_linear_3_1077)"/>
<path d="M382.091 11.3328C380.262 8.20653 377.712 5.58944 374.656 3.63551C371.08 1.32631 366.819 0 362.264 0L329.418 0.0236841C325.075 8.09996 324.615 16.8749 324.143 25.9933C323.942 29.8775 323.753 33.7972 323.211 37.6814H326.232L323.14 55.8589H318.206L318.808 52.33C316.601 56.5813 313.356 60.6549 308.623 64.4562C294.496 75.7772 280.936 73.4207 267.812 71.1707C254.416 68.8378 241.765 66.6589 228.145 77.5772C214.514 88.4956 213.853 101.368 213.145 114.986C212.448 128.32 211.74 142.116 197.613 153.449C183.486 164.77 169.937 162.437 156.813 160.164C143.418 157.831 130.755 155.652 117.123 166.57C103.492 177.489 102.831 190.361 102.123 203.979C101.426 217.313 100.73 231.109 86.5913 242.442C85.7888 243.093 84.9744 243.686 84.1719 244.242L161.711 244.183C161.924 241.779 162.054 239.316 162.183 236.853C162.88 223.519 163.588 209.723 177.715 198.39C191.842 187.069 205.403 189.402 218.526 191.675C231.922 193.984 244.574 196.187 258.193 185.269C271.813 174.35 272.485 161.466 273.193 147.86C273.89 134.526 274.586 120.73 288.725 109.397C302.852 98.0758 316.413 100.409 329.525 102.682C342.92 104.992 355.572 107.194 369.191 96.2758C382.823 85.3574 383.484 72.4851 384.192 58.8668C384.357 55.4918 384.546 52.0931 384.947 48.7182L384.923 22.417C384.923 18.4025 383.908 14.6131 382.091 11.3328ZM331.743 56.1431C329.525 56.1194 327.4 55.6694 326.244 55.1721L326.94 51.0984L327.565 51.3826C329.182 52.0576 330.245 52.3418 332.215 52.3418C333.632 52.3418 335.154 51.7852 335.178 50.5655C335.19 49.7603 334.529 49.1918 332.617 48.3037C330.728 47.4392 328.25 45.9826 328.285 43.3774C328.309 39.8485 331.755 37.3616 336.629 37.3616C338.541 37.3616 340.087 37.7643 341.055 38.1314L340.383 42.0629L339.934 41.8616C339.013 41.4945 337.845 41.1511 336.228 41.1629C334.304 41.1629 333.396 41.98 333.396 42.7379C333.384 43.5787 334.458 44.1471 336.181 44.9879C339.025 46.2905 340.347 47.8537 340.312 49.9379C340.3 53.6918 336.925 56.1313 331.743 56.1431ZM353.152 55.8471C353.152 55.8471 352.704 53.7629 352.55 53.1352H346.225C346.036 53.6089 345.186 55.8471 345.186 55.8471H339.993L347.31 39.1616C347.83 37.9893 348.727 37.6577 349.907 37.6577H353.719L357.732 55.8352L353.152 55.8471Z" fill="url(#paint12_linear_3_1077)"/>
<path d="M328.274 43.3656C328.298 39.8366 331.744 37.3498 336.618 37.3498C338.53 37.3498 340.076 37.7524 341.044 38.1195L340.371 42.0511L339.923 41.8498C339.002 41.4827 337.834 41.1393 336.217 41.1511C334.293 41.1511 333.384 41.9682 333.384 42.7261C333.372 43.5669 334.446 44.1353 336.17 44.9761C339.014 46.2787 340.336 47.8419 340.3 49.9261C340.277 53.7037 336.901 56.1431 331.72 56.1431C329.501 56.1194 327.377 55.6694 326.22 55.1721L326.917 51.0984L327.542 51.3826C329.159 52.0576 330.221 52.3418 332.192 52.3418C333.609 52.3418 335.131 51.7853 335.155 50.5655C335.166 49.7603 334.505 49.1918 332.594 48.3037C330.717 47.4392 328.25 45.9708 328.274 43.3656Z" fill="url(#paint13_linear_3_1077)"/>
<path d="M339.993 55.8589L347.311 39.1735C347.83 38.0011 348.727 37.6695 349.907 37.6695H353.719L357.732 55.8471H353.141C353.141 55.8471 352.692 53.7629 352.539 53.1352H346.213C346.024 53.6089 345.175 55.8471 345.175 55.8471L339.993 55.8589Z" fill="url(#paint14_linear_3_1077)"/>
<path d="M384.959 68.4233L385.018 147.587C376.048 150.228 367.268 148.701 358.145 147.137C345.033 144.864 331.472 142.519 317.345 153.852C303.206 165.173 302.498 178.969 301.814 192.315C301.105 205.921 300.445 218.805 286.813 229.724C273.182 240.642 260.53 238.451 247.146 236.13C234.023 233.857 220.462 231.512 206.335 242.845C205.792 243.271 205.261 243.721 204.765 244.171L163.163 244.207C163.364 241.779 163.494 239.363 163.612 236.947C164.32 223.317 164.981 210.457 178.612 199.538C192.243 188.62 204.895 190.799 218.302 193.132C231.426 195.406 244.975 197.75 259.102 186.417C273.229 175.096 273.949 161.3 274.633 147.954C275.342 134.324 276.002 121.464 289.634 110.545C303.265 99.6271 315.917 101.806 329.3 104.139C342.424 106.401 355.985 108.757 370.112 97.4245C380.899 88.7442 383.85 78.643 384.959 68.4233Z" fill="url(#paint15_linear_3_1077)"/>
<path d="M382.091 11.3328C383.909 14.6131 384.924 18.4025 384.924 22.417L384.948 48.7182C384.546 52.105 384.369 55.5036 384.192 58.8668C383.484 72.497 382.823 85.3574 369.192 96.2758C355.561 107.194 342.909 105.003 329.525 102.682C316.413 100.409 302.853 98.0639 288.725 109.397C274.587 120.718 273.879 134.514 273.194 147.86C272.486 161.466 271.825 174.35 258.194 185.269C244.562 196.187 231.91 193.996 218.527 191.675C205.403 189.402 191.842 187.057 177.715 198.39C163.588 209.711 162.868 223.507 162.184 236.853C162.054 239.316 161.936 241.767 161.712 244.183L84.1724 244.242C84.975 243.697 85.7893 243.093 86.5919 242.442C100.731 231.121 101.439 217.325 102.123 203.979C102.831 190.349 103.492 177.489 117.124 166.57C130.755 155.652 143.419 157.831 156.814 160.164C169.938 162.437 183.487 164.782 197.614 153.449C211.741 142.128 212.461 128.332 213.145 114.986C213.853 101.356 214.514 88.4956 228.146 77.5772C241.777 66.6589 254.429 68.8378 267.812 71.1707C280.936 73.4325 294.497 75.7891 308.624 64.4562C313.356 60.6549 316.59 56.5813 318.809 52.33L318.207 55.8589H323.14L326.232 37.6814H323.211C323.754 33.7972 323.955 29.8775 324.143 25.9933C324.604 16.8749 325.076 8.09995 329.419 0.0236816H327.837C323.636 8.30127 323.176 17.2065 322.727 25.9222C322.515 29.9248 322.314 33.8564 321.783 37.6814H321.299L319.8 46.5155C317.77 52.4721 314.23 58.1207 307.739 63.3312C294.107 74.2496 281.455 72.0588 268.072 69.7378C254.96 67.4641 241.399 65.1194 227.272 76.4522C213.133 87.7732 212.425 101.569 211.741 114.915C211.033 128.522 210.372 141.406 196.74 152.324C183.109 163.243 170.457 161.052 157.074 158.731C143.95 156.457 130.389 154.112 116.262 165.445C102.135 176.778 101.38 190.586 100.695 203.92C99.9872 217.55 99.3263 230.411 85.6949 241.329C84.314 242.43 82.9568 243.413 81.576 244.242L22.8018 244.289C14.4459 244.301 7.11687 239.837 3.08057 233.17C7.03425 240.239 14.564 245.012 23.2031 245L362.429 244.751C375.164 244.739 385.479 234.366 385.467 221.6L385.325 23.1038C385.325 18.7933 384.157 14.767 382.091 11.3328ZM385.077 220.89C385.089 233.667 374.762 244.029 362.04 244.041L206.985 244.147C207.055 244.076 207.138 244.017 207.232 243.946C220.864 233.028 233.527 235.207 246.923 237.539C260.047 239.813 273.595 242.158 287.722 230.825C301.849 219.504 302.569 205.708 303.254 192.362C303.962 178.732 304.623 165.871 318.254 154.953C331.886 144.035 344.537 146.214 357.921 148.547C366.761 150.062 375.777 151.625 385.03 149.032L385.077 220.89ZM385.018 147.587C376.049 150.228 367.268 148.701 358.145 147.137C345.033 144.864 331.473 142.519 317.345 153.852C303.207 165.173 302.498 178.969 301.814 192.315C301.106 205.921 300.445 218.805 286.814 229.724C273.182 240.642 260.53 238.451 247.147 236.13C234.023 233.857 220.462 231.512 206.335 242.845C205.793 243.271 205.261 243.721 204.766 244.171L163.164 244.207C163.364 241.779 163.494 239.363 163.612 236.947C164.32 223.317 164.981 210.457 178.612 199.538C192.244 188.62 204.896 190.799 218.303 193.132C231.427 195.406 244.975 197.75 259.102 186.417C273.229 175.096 273.949 161.3 274.634 147.954C275.342 134.324 276.003 121.464 289.634 110.545C303.266 99.6271 315.917 101.806 329.301 104.139C342.425 106.401 355.985 108.757 370.112 97.4245C380.911 88.7679 383.862 78.6667 384.971 68.447L385.018 147.587Z" fill="url(#paint16_linear_3_1077)"/>
<path d="M385.018 149.032L385.065 220.89C385.077 233.667 374.75 244.029 362.028 244.041L206.972 244.147C207.043 244.076 207.126 244.017 207.22 243.946C220.852 233.028 233.515 235.207 246.911 237.539C260.034 239.813 273.583 242.158 287.71 230.825C301.837 219.504 302.557 205.708 303.242 192.362C303.95 178.732 304.611 165.871 318.242 154.953C331.873 144.035 344.525 146.214 357.909 148.547C366.737 150.062 375.765 151.637 385.018 149.032Z" fill="url(#paint17_linear_3_1077)"/>
<defs>
<linearGradient id="paint0_linear_3_1077" x1="26.1498" y1="142.211" x2="68.2192" y2="34.2517" gradientUnits="userSpaceOnUse">
<stop stop-color="#885DF5"/>
<stop offset="0.9944" stop-color="#6B7CFE"/>
</linearGradient>
<linearGradient id="paint1_linear_3_1077" x1="82.5984" y1="239.696" x2="157.164" y2="48.3447" gradientUnits="userSpaceOnUse">
<stop stop-color="#885DF5"/>
<stop offset="0.9944" stop-color="#6B7CFE"/>
</linearGradient>
<linearGradient id="paint2_linear_3_1077" x1="301.775" y1="44.8011" x2="303.815" y2="39.5673" gradientUnits="userSpaceOnUse">
<stop stop-color="#885DF5"/>
<stop offset="0.9944" stop-color="#6B7CFE"/>
</linearGradient>
<linearGradient id="paint3_linear_3_1077" x1="304.056" y1="56.031" x2="309.798" y2="41.2963" gradientUnits="userSpaceOnUse">
<stop stop-color="#885DF5"/>
<stop offset="0.9944" stop-color="#6B7CFE"/>
</linearGradient>
<linearGradient id="paint4_linear_3_1077" x1="330.051" y1="57.6839" x2="335.696" y2="43.1974" gradientUnits="userSpaceOnUse">
<stop stop-color="#885DF5"/>
<stop offset="0.9944" stop-color="#6B7CFE"/>
</linearGradient>
<linearGradient id="paint5_linear_3_1077" x1="347.343" y1="59.7853" x2="353.167" y2="44.839" gradientUnits="userSpaceOnUse">
<stop stop-color="#885DF5"/>
<stop offset="0.9944" stop-color="#6B7CFE"/>
</linearGradient>
<linearGradient id="paint6_linear_3_1077" x1="160.428" y1="317.045" x2="253.234" y2="78.8832" gradientUnits="userSpaceOnUse">
<stop stop-color="#885DF5"/>
<stop offset="0.9944" stop-color="#6B7CFE"/>
</linearGradient>
<linearGradient id="paint7_linear_3_1077" x1="0.0268045" y1="60.8668" x2="116.369" y2="60.7834" gradientUnits="userSpaceOnUse">
<stop stop-color="#4D338A"/>
<stop offset="0.9888" stop-color="#252857"/>
</linearGradient>
<linearGradient id="paint8_linear_3_1077" x1="0.053511" y1="97.7259" x2="274.473" y2="97.5293" gradientUnits="userSpaceOnUse">
<stop stop-color="#6947BD"/>
<stop offset="0.9888" stop-color="#252857"/>
</linearGradient>
<linearGradient id="paint9_linear_3_1077" x1="0.0708538" y1="122.282" x2="327.916" y2="122.048" gradientUnits="userSpaceOnUse">
<stop stop-color="#885DF5"/>
<stop offset="0.9888" stop-color="#2E3670"/>
</linearGradient>
<linearGradient id="paint10_linear_3_1077" x1="301.775" y1="44.8011" x2="303.815" y2="39.5673" gradientUnits="userSpaceOnUse">
<stop stop-color="#885DF5"/>
<stop offset="0.9944" stop-color="#6B7CFE"/>
</linearGradient>
<linearGradient id="paint11_linear_3_1077" x1="304.056" y1="56.031" x2="309.798" y2="41.2963" gradientUnits="userSpaceOnUse">
<stop stop-color="#885DF5"/>
<stop offset="0.9944" stop-color="#6B7CFE"/>
</linearGradient>
<linearGradient id="paint12_linear_3_1077" x1="84.0828" y1="122.222" x2="385" y2="122.006" gradientUnits="userSpaceOnUse">
<stop stop-color="#885DF5"/>
<stop offset="0.9944" stop-color="#4551A6"/>
</linearGradient>
<linearGradient id="paint13_linear_3_1077" x1="330.051" y1="57.6839" x2="335.696" y2="43.1974" gradientUnits="userSpaceOnUse">
<stop stop-color="#885DF5"/>
<stop offset="0.9944" stop-color="#6B7CFE"/>
</linearGradient>
<linearGradient id="paint14_linear_3_1077" x1="347.343" y1="59.7853" x2="353.167" y2="44.839" gradientUnits="userSpaceOnUse">
<stop stop-color="#885DF5"/>
<stop offset="0.9944" stop-color="#6B7CFE"/>
</linearGradient>
<linearGradient id="paint15_linear_3_1077" x1="163.089" y1="156.383" x2="385.025" y2="156.224" gradientUnits="userSpaceOnUse">
<stop stop-color="#885DF5"/>
<stop offset="0.9944" stop-color="#5C6BDB"/>
</linearGradient>
<linearGradient id="paint16_linear_3_1077" x1="160.428" y1="317.045" x2="253.234" y2="78.8832" gradientUnits="userSpaceOnUse">
<stop stop-color="#885DF5"/>
<stop offset="0.9944" stop-color="#6B7CFE"/>
</linearGradient>
<linearGradient id="paint17_linear_3_1077" x1="206.938" y1="195.451" x2="385.053" y2="195.323" gradientUnits="userSpaceOnUse">
<stop stop-color="#885DF5"/>
<stop offset="0.9944" stop-color="#6B7CFE"/>
</linearGradient>
</defs>
</svg>
